<mxfile host="app.diagrams.net" modified="2022-05-27T08:51:31.518Z" agent="5.0 (Windows NT 10.0; Win64; x64) AppleWebKit/537.36 (KHTML, like Gecko) Chrome/101.0.4951.64 Safari/537.36 Edg/101.0.1210.53" etag="BYJXDCmYQYOrk1SwD3aQ" version="18.1.3" type="github">
  <diagram id="C5RBs43oDa-KdzZeNtuy" name="Page-1">
    <mxGraphModel dx="1673" dy="1075" grid="1" gridSize="10" guides="1" tooltips="1" connect="1" arrows="1" fold="1" page="1" pageScale="1" pageWidth="827" pageHeight="1169" math="0" shadow="0">
      <root>
        <mxCell id="WIyWlLk6GJQsqaUBKTNV-0" />
        <mxCell id="WIyWlLk6GJQsqaUBKTNV-1" parent="WIyWlLk6GJQsqaUBKTNV-0" />
        <mxCell id="g1Mgej3gUS1yj2cgCd6g-3" style="edgeStyle=orthogonalEdgeStyle;rounded=0;orthogonalLoop=1;jettySize=auto;html=1;exitX=0.5;exitY=1;exitDx=0;exitDy=0;entryX=0.5;entryY=0;entryDx=0;entryDy=0;" edge="1" parent="WIyWlLk6GJQsqaUBKTNV-1" source="g1Mgej3gUS1yj2cgCd6g-1" target="g1Mgej3gUS1yj2cgCd6g-2">
          <mxGeometry relative="1" as="geometry" />
        </mxCell>
        <mxCell id="g1Mgej3gUS1yj2cgCd6g-1" value="Start" style="ellipse;whiteSpace=wrap;html=1;" vertex="1" parent="WIyWlLk6GJQsqaUBKTNV-1">
          <mxGeometry x="75" y="10" width="120" height="80" as="geometry" />
        </mxCell>
        <mxCell id="g1Mgej3gUS1yj2cgCd6g-5" style="edgeStyle=orthogonalEdgeStyle;rounded=0;orthogonalLoop=1;jettySize=auto;html=1;exitX=0.5;exitY=1;exitDx=0;exitDy=0;entryX=0.5;entryY=0;entryDx=0;entryDy=0;" edge="1" parent="WIyWlLk6GJQsqaUBKTNV-1" source="g1Mgej3gUS1yj2cgCd6g-2" target="g1Mgej3gUS1yj2cgCd6g-4">
          <mxGeometry relative="1" as="geometry" />
        </mxCell>
        <mxCell id="g1Mgej3gUS1yj2cgCd6g-2" value="int i, nx, ky&lt;br&gt;int *x, int *p" style="shape=parallelogram;perimeter=parallelogramPerimeter;whiteSpace=wrap;html=1;fixedSize=1;" vertex="1" parent="WIyWlLk6GJQsqaUBKTNV-1">
          <mxGeometry x="75" y="120" width="120" height="60" as="geometry" />
        </mxCell>
        <mxCell id="g1Mgej3gUS1yj2cgCd6g-7" style="edgeStyle=orthogonalEdgeStyle;rounded=0;orthogonalLoop=1;jettySize=auto;html=1;exitX=0.5;exitY=1;exitDx=0;exitDy=0;entryX=0.5;entryY=0;entryDx=0;entryDy=0;" edge="1" parent="WIyWlLk6GJQsqaUBKTNV-1" source="g1Mgej3gUS1yj2cgCd6g-4" target="g1Mgej3gUS1yj2cgCd6g-6">
          <mxGeometry relative="1" as="geometry" />
        </mxCell>
        <mxCell id="g1Mgej3gUS1yj2cgCd6g-4" value="bsearch(const void* key, const void*base, size_t nmemb, size_t size,int(*compar)(const void*, const void*))" style="shape=process;whiteSpace=wrap;html=1;backgroundOutline=1;" vertex="1" parent="WIyWlLk6GJQsqaUBKTNV-1">
          <mxGeometry x="10" y="210" width="250" height="90" as="geometry" />
        </mxCell>
        <mxCell id="g1Mgej3gUS1yj2cgCd6g-6" value="End" style="ellipse;whiteSpace=wrap;html=1;" vertex="1" parent="WIyWlLk6GJQsqaUBKTNV-1">
          <mxGeometry x="75" y="330" width="120" height="80" as="geometry" />
        </mxCell>
        <mxCell id="g1Mgej3gUS1yj2cgCd6g-10" style="edgeStyle=orthogonalEdgeStyle;rounded=0;orthogonalLoop=1;jettySize=auto;html=1;exitX=0.5;exitY=1;exitDx=0;exitDy=0;entryX=0.5;entryY=0;entryDx=0;entryDy=0;" edge="1" parent="WIyWlLk6GJQsqaUBKTNV-1" source="g1Mgej3gUS1yj2cgCd6g-9" target="g1Mgej3gUS1yj2cgCd6g-11">
          <mxGeometry relative="1" as="geometry">
            <mxPoint x="680" y="320" as="targetPoint" />
          </mxGeometry>
        </mxCell>
        <mxCell id="g1Mgej3gUS1yj2cgCd6g-9" value="&lt;span style=&quot;&quot;&gt;bsearch(const void* key, const void*base, size_t nmemb, size_t size,int(*compar)(const void*, const void*))&lt;/span&gt;" style="ellipse;whiteSpace=wrap;html=1;" vertex="1" parent="WIyWlLk6GJQsqaUBKTNV-1">
          <mxGeometry x="560" y="180" width="240" height="90" as="geometry" />
        </mxCell>
        <mxCell id="g1Mgej3gUS1yj2cgCd6g-15" style="edgeStyle=orthogonalEdgeStyle;rounded=0;orthogonalLoop=1;jettySize=auto;html=1;exitX=0.5;exitY=1;exitDx=0;exitDy=0;entryX=0.5;entryY=0;entryDx=0;entryDy=0;" edge="1" parent="WIyWlLk6GJQsqaUBKTNV-1" source="g1Mgej3gUS1yj2cgCd6g-11" target="g1Mgej3gUS1yj2cgCd6g-14">
          <mxGeometry relative="1" as="geometry" />
        </mxCell>
        <mxCell id="g1Mgej3gUS1yj2cgCd6g-11" value="int p = 0&lt;br&gt;int r = size-1&lt;br&gt;int m = r/2&lt;br&gt;int* pm = &amp;amp;m&lt;br&gt;&lt;br&gt;" style="rounded=0;whiteSpace=wrap;html=1;align=center;verticalAlign=top;" vertex="1" parent="WIyWlLk6GJQsqaUBKTNV-1">
          <mxGeometry x="610" y="310" width="140" height="80" as="geometry" />
        </mxCell>
        <mxCell id="g1Mgej3gUS1yj2cgCd6g-19" style="edgeStyle=orthogonalEdgeStyle;rounded=0;orthogonalLoop=1;jettySize=auto;html=1;exitX=0.5;exitY=1;exitDx=0;exitDy=0;entryX=0.5;entryY=0;entryDx=0;entryDy=0;" edge="1" parent="WIyWlLk6GJQsqaUBKTNV-1" source="g1Mgej3gUS1yj2cgCd6g-14" target="g1Mgej3gUS1yj2cgCd6g-17">
          <mxGeometry relative="1" as="geometry" />
        </mxCell>
        <mxCell id="g1Mgej3gUS1yj2cgCd6g-23" style="edgeStyle=orthogonalEdgeStyle;rounded=0;orthogonalLoop=1;jettySize=auto;html=1;exitX=0;exitY=0.5;exitDx=0;exitDy=0;entryX=1;entryY=0.5;entryDx=0;entryDy=0;" edge="1" parent="WIyWlLk6GJQsqaUBKTNV-1" source="g1Mgej3gUS1yj2cgCd6g-14" target="g1Mgej3gUS1yj2cgCd6g-24">
          <mxGeometry relative="1" as="geometry">
            <mxPoint x="530" y="490" as="targetPoint" />
          </mxGeometry>
        </mxCell>
        <mxCell id="g1Mgej3gUS1yj2cgCd6g-14" value="&amp;nbsp; &amp;nbsp; &amp;nbsp; &amp;nbsp; &amp;nbsp; &amp;nbsp; &amp;nbsp; &amp;nbsp; &amp;nbsp; &amp;nbsp; &amp;nbsp; &amp;nbsp; &amp;nbsp; &amp;nbsp; &amp;nbsp; &amp;nbsp; &amp;nbsp; &amp;nbsp; &amp;nbsp; &amp;nbsp; &amp;nbsp; &amp;nbsp; ==0?" style="rhombus;whiteSpace=wrap;html=1;" vertex="1" parent="WIyWlLk6GJQsqaUBKTNV-1">
          <mxGeometry x="565" y="440" width="230" height="100" as="geometry" />
        </mxCell>
        <mxCell id="g1Mgej3gUS1yj2cgCd6g-16" value="&lt;span style=&quot;&quot;&gt;int_cmp(base[m],key)&amp;nbsp;&lt;/span&gt;" style="shape=process;whiteSpace=wrap;html=1;backgroundOutline=1;" vertex="1" parent="WIyWlLk6GJQsqaUBKTNV-1">
          <mxGeometry x="625" y="470" width="110" height="40" as="geometry" />
        </mxCell>
        <mxCell id="g1Mgej3gUS1yj2cgCd6g-22" style="edgeStyle=orthogonalEdgeStyle;rounded=0;orthogonalLoop=1;jettySize=auto;html=1;exitX=0.5;exitY=1;exitDx=0;exitDy=0;entryX=0.5;entryY=0;entryDx=0;entryDy=0;" edge="1" parent="WIyWlLk6GJQsqaUBKTNV-1" source="g1Mgej3gUS1yj2cgCd6g-17" target="g1Mgej3gUS1yj2cgCd6g-20">
          <mxGeometry relative="1" as="geometry" />
        </mxCell>
        <mxCell id="g1Mgej3gUS1yj2cgCd6g-28" style="edgeStyle=orthogonalEdgeStyle;rounded=0;orthogonalLoop=1;jettySize=auto;html=1;exitX=1;exitY=0.5;exitDx=0;exitDy=0;entryX=0;entryY=0.5;entryDx=0;entryDy=0;" edge="1" parent="WIyWlLk6GJQsqaUBKTNV-1" source="g1Mgej3gUS1yj2cgCd6g-17" target="g1Mgej3gUS1yj2cgCd6g-26">
          <mxGeometry relative="1" as="geometry" />
        </mxCell>
        <mxCell id="g1Mgej3gUS1yj2cgCd6g-17" value="&amp;nbsp; &amp;nbsp; &amp;nbsp; &amp;nbsp; &amp;nbsp; &amp;nbsp; &amp;nbsp; &amp;nbsp; &amp;nbsp; &amp;nbsp; &amp;nbsp; &amp;nbsp; &amp;nbsp; &amp;nbsp; &amp;nbsp; &amp;nbsp; &amp;nbsp; &amp;nbsp; &amp;nbsp; &amp;nbsp; &amp;nbsp; &amp;nbsp; ==-1?" style="rhombus;whiteSpace=wrap;html=1;" vertex="1" parent="WIyWlLk6GJQsqaUBKTNV-1">
          <mxGeometry x="565" y="590" width="230" height="100" as="geometry" />
        </mxCell>
        <mxCell id="g1Mgej3gUS1yj2cgCd6g-18" value="&lt;span style=&quot;&quot;&gt;int_cmp(base[m],key)&amp;nbsp;&lt;/span&gt;" style="shape=process;whiteSpace=wrap;html=1;backgroundOutline=1;" vertex="1" parent="WIyWlLk6GJQsqaUBKTNV-1">
          <mxGeometry x="625" y="620" width="110" height="40" as="geometry" />
        </mxCell>
        <mxCell id="g1Mgej3gUS1yj2cgCd6g-30" style="edgeStyle=orthogonalEdgeStyle;rounded=0;orthogonalLoop=1;jettySize=auto;html=1;exitX=1;exitY=0.5;exitDx=0;exitDy=0;entryX=0;entryY=0.5;entryDx=0;entryDy=0;" edge="1" parent="WIyWlLk6GJQsqaUBKTNV-1" source="g1Mgej3gUS1yj2cgCd6g-20" target="g1Mgej3gUS1yj2cgCd6g-29">
          <mxGeometry relative="1" as="geometry" />
        </mxCell>
        <mxCell id="g1Mgej3gUS1yj2cgCd6g-20" value="&amp;nbsp; &amp;nbsp; &amp;nbsp; &amp;nbsp; &amp;nbsp; &amp;nbsp; &amp;nbsp; &amp;nbsp; &amp;nbsp; &amp;nbsp; &amp;nbsp; &amp;nbsp; &amp;nbsp; &amp;nbsp; &amp;nbsp; &amp;nbsp; &amp;nbsp; &amp;nbsp; &amp;nbsp; &amp;nbsp; &amp;nbsp; &amp;nbsp; ==1?" style="rhombus;whiteSpace=wrap;html=1;" vertex="1" parent="WIyWlLk6GJQsqaUBKTNV-1">
          <mxGeometry x="565" y="750" width="230" height="100" as="geometry" />
        </mxCell>
        <mxCell id="g1Mgej3gUS1yj2cgCd6g-21" value="&lt;span style=&quot;&quot;&gt;int_cmp(base[m],key)&amp;nbsp;&lt;/span&gt;" style="shape=process;whiteSpace=wrap;html=1;backgroundOutline=1;" vertex="1" parent="WIyWlLk6GJQsqaUBKTNV-1">
          <mxGeometry x="625" y="780" width="110" height="40" as="geometry" />
        </mxCell>
        <mxCell id="g1Mgej3gUS1yj2cgCd6g-24" value="return pm" style="rounded=0;whiteSpace=wrap;html=1;" vertex="1" parent="WIyWlLk6GJQsqaUBKTNV-1">
          <mxGeometry x="400" y="460" width="120" height="60" as="geometry" />
        </mxCell>
        <mxCell id="g1Mgej3gUS1yj2cgCd6g-33" style="edgeStyle=orthogonalEdgeStyle;rounded=0;orthogonalLoop=1;jettySize=auto;html=1;exitX=1;exitY=0.5;exitDx=0;exitDy=0;entryX=0.5;entryY=0;entryDx=0;entryDy=0;" edge="1" parent="WIyWlLk6GJQsqaUBKTNV-1" source="g1Mgej3gUS1yj2cgCd6g-26" target="g1Mgej3gUS1yj2cgCd6g-14">
          <mxGeometry relative="1" as="geometry">
            <Array as="points">
              <mxPoint x="1000" y="640" />
              <mxPoint x="1000" y="420" />
              <mxPoint x="680" y="420" />
            </Array>
          </mxGeometry>
        </mxCell>
        <mxCell id="g1Mgej3gUS1yj2cgCd6g-26" value="r = m-1&lt;br&gt;m = r * 0.5" style="rounded=0;whiteSpace=wrap;html=1;" vertex="1" parent="WIyWlLk6GJQsqaUBKTNV-1">
          <mxGeometry x="830" y="610" width="120" height="60" as="geometry" />
        </mxCell>
        <mxCell id="g1Mgej3gUS1yj2cgCd6g-31" style="edgeStyle=orthogonalEdgeStyle;rounded=0;orthogonalLoop=1;jettySize=auto;html=1;exitX=1;exitY=0.5;exitDx=0;exitDy=0;entryX=0.5;entryY=0;entryDx=0;entryDy=0;" edge="1" parent="WIyWlLk6GJQsqaUBKTNV-1" source="g1Mgej3gUS1yj2cgCd6g-29" target="g1Mgej3gUS1yj2cgCd6g-14">
          <mxGeometry relative="1" as="geometry">
            <Array as="points">
              <mxPoint x="1000" y="800" />
              <mxPoint x="1000" y="420" />
              <mxPoint x="680" y="420" />
            </Array>
          </mxGeometry>
        </mxCell>
        <mxCell id="g1Mgej3gUS1yj2cgCd6g-29" value="p&amp;nbsp; = m+1&lt;br&gt;m = (r+p) * 0.5" style="rounded=0;whiteSpace=wrap;html=1;" vertex="1" parent="WIyWlLk6GJQsqaUBKTNV-1">
          <mxGeometry x="830" y="770" width="120" height="60" as="geometry" />
        </mxCell>
        <mxCell id="g1Mgej3gUS1yj2cgCd6g-35" style="edgeStyle=orthogonalEdgeStyle;rounded=0;orthogonalLoop=1;jettySize=auto;html=1;exitX=0.5;exitY=1;exitDx=0;exitDy=0;entryX=0.5;entryY=0;entryDx=0;entryDy=0;" edge="1" parent="WIyWlLk6GJQsqaUBKTNV-1" source="g1Mgej3gUS1yj2cgCd6g-34" target="g1Mgej3gUS1yj2cgCd6g-36">
          <mxGeometry relative="1" as="geometry">
            <mxPoint x="134.8965517241379" y="630" as="targetPoint" />
          </mxGeometry>
        </mxCell>
        <mxCell id="g1Mgej3gUS1yj2cgCd6g-34" value="int_cmp(const *int a, const *int b)" style="ellipse;whiteSpace=wrap;html=1;" vertex="1" parent="WIyWlLk6GJQsqaUBKTNV-1">
          <mxGeometry x="75" y="510" width="120" height="80" as="geometry" />
        </mxCell>
        <mxCell id="g1Mgej3gUS1yj2cgCd6g-37" style="edgeStyle=orthogonalEdgeStyle;rounded=0;orthogonalLoop=1;jettySize=auto;html=1;exitX=0.5;exitY=1;exitDx=0;exitDy=0;entryX=0.5;entryY=0;entryDx=0;entryDy=0;" edge="1" parent="WIyWlLk6GJQsqaUBKTNV-1" source="g1Mgej3gUS1yj2cgCd6g-36" target="g1Mgej3gUS1yj2cgCd6g-38">
          <mxGeometry relative="1" as="geometry">
            <mxPoint x="134.8965517241379" y="750" as="targetPoint" />
          </mxGeometry>
        </mxCell>
        <mxCell id="g1Mgej3gUS1yj2cgCd6g-41" style="edgeStyle=orthogonalEdgeStyle;rounded=0;orthogonalLoop=1;jettySize=auto;html=1;exitX=1;exitY=0.5;exitDx=0;exitDy=0;entryX=0;entryY=0.5;entryDx=0;entryDy=0;" edge="1" parent="WIyWlLk6GJQsqaUBKTNV-1" source="g1Mgej3gUS1yj2cgCd6g-36" target="g1Mgej3gUS1yj2cgCd6g-42">
          <mxGeometry relative="1" as="geometry">
            <mxPoint x="205" y="670.1034482758621" as="targetPoint" />
          </mxGeometry>
        </mxCell>
        <mxCell id="g1Mgej3gUS1yj2cgCd6g-36" value="a*&amp;lt;b*?" style="rhombus;whiteSpace=wrap;html=1;" vertex="1" parent="WIyWlLk6GJQsqaUBKTNV-1">
          <mxGeometry x="95" y="630" width="80" height="80" as="geometry" />
        </mxCell>
        <mxCell id="g1Mgej3gUS1yj2cgCd6g-39" style="edgeStyle=orthogonalEdgeStyle;rounded=0;orthogonalLoop=1;jettySize=auto;html=1;exitX=0.5;exitY=1;exitDx=0;exitDy=0;entryX=0.5;entryY=0;entryDx=0;entryDy=0;" edge="1" parent="WIyWlLk6GJQsqaUBKTNV-1" source="g1Mgej3gUS1yj2cgCd6g-38" target="g1Mgej3gUS1yj2cgCd6g-40">
          <mxGeometry relative="1" as="geometry">
            <mxPoint x="134.8965517241379" y="860" as="targetPoint" />
          </mxGeometry>
        </mxCell>
        <mxCell id="g1Mgej3gUS1yj2cgCd6g-44" style="edgeStyle=orthogonalEdgeStyle;rounded=0;orthogonalLoop=1;jettySize=auto;html=1;exitX=1;exitY=0.5;exitDx=0;exitDy=0;entryX=0;entryY=0.5;entryDx=0;entryDy=0;" edge="1" parent="WIyWlLk6GJQsqaUBKTNV-1" source="g1Mgej3gUS1yj2cgCd6g-38" target="g1Mgej3gUS1yj2cgCd6g-43">
          <mxGeometry relative="1" as="geometry" />
        </mxCell>
        <mxCell id="g1Mgej3gUS1yj2cgCd6g-38" value="a*&amp;gt;b*?" style="rhombus;whiteSpace=wrap;html=1;" vertex="1" parent="WIyWlLk6GJQsqaUBKTNV-1">
          <mxGeometry x="95" y="750" width="80" height="80" as="geometry" />
        </mxCell>
        <mxCell id="g1Mgej3gUS1yj2cgCd6g-40" value="return 0" style="rounded=0;whiteSpace=wrap;html=1;" vertex="1" parent="WIyWlLk6GJQsqaUBKTNV-1">
          <mxGeometry x="75" y="860" width="120" height="60" as="geometry" />
        </mxCell>
        <mxCell id="g1Mgej3gUS1yj2cgCd6g-42" value="return -1" style="rounded=0;whiteSpace=wrap;html=1;" vertex="1" parent="WIyWlLk6GJQsqaUBKTNV-1">
          <mxGeometry x="215" y="640" width="120" height="60" as="geometry" />
        </mxCell>
        <mxCell id="g1Mgej3gUS1yj2cgCd6g-43" value="return 1" style="rounded=0;whiteSpace=wrap;html=1;" vertex="1" parent="WIyWlLk6GJQsqaUBKTNV-1">
          <mxGeometry x="215" y="760" width="120" height="60" as="geometry" />
        </mxCell>
      </root>
    </mxGraphModel>
  </diagram>
</mxfile>
